<?xml version="1.0" encoding="UTF-8"?>
<svg width="984" height="290" version="1.1" viewBox="-7.93 -7.93 388 115" xmlns="http://www.w3.org/2000/svg" xmlns:cc="http://creativecommons.org/ns#" xmlns:dc="http://purl.org/dc/elements/1.1/" xmlns:rdf="http://www.w3.org/1999/02/22-rdf-syntax-ns#">
<title>MySQL textlogo</title>
 <path d="m150 16.9c-6.1 33.2-14.1 57.3-24.1 72.3-7.78 11.6-16.3 17.4-25.6 17.4-2.47 0-5.52-0.747-9.14-2.23v-8c1.77 0.26 3.84 0.398 6.23 0.398 4.33 0 7.82-1.2 10.5-3.59 3.18-2.92 4.77-6.2 4.77-9.83 0-2.48-1.24-7.58-3.71-15.3l-16.4-51.2h14.7l11.8 38.3c2.65 8.69 3.76 14.8 3.31 18.2 6.45-17.3 11-36.1 13.5-56.5h14.2m-65 66.2h-15c-0.527-25.3-1.99-49.2-4.37-71.5h-0.132l-22.8 71.5h-11.4l-22.7-71.5h-0.134c-1.68 21.4-2.74 45.3-3.18 71.5h-13.7c0.882-31.9 3.09-61.8 6.62-89.7h18.6l21.6 65.9h0.133l21.7-65.9h17.8c3.89 32.7 6.19 62.6 6.89 89.7" style="fill:#00758f"/>
 <path d="m350 83.1h-42.5v-89.7h14.3v78.7h28.2v11m-107-17.9c-3.62-5.85-5.44-15.2-5.44-28.2 0-22.6 6.85-33.9 20.5-33.9 7.16 0 12.4 2.7 15.8 8.1 3.62 5.85 5.44 15.2 5.44 27.9 0 22.8-6.85 34.2-20.5 34.2-7.16 0-12.4-2.7-15.8-8.11m53.3 20.1-16.4-8.13c1.46-1.2 2.86-2.5 4.11-4.01 6.98-8.23 10.5-20.4 10.5-36.5 0-29.7-11.6-44.5-34.9-44.5-11.4 0-20.3 3.76-26.6 11.3-6.99 8.24-10.5 20.4-10.5 36.4 0 15.8 3.09 27.3 9.28 34.7 5.64 6.64 14.2 9.97 25.6 9.97 4.26 0 8.16-0.526 11.7-1.58l21.4 12.5 5.84-10.1m-80-27c0 7.61-2.79 13.9-8.35 18.7-5.56 4.87-13 7.3-22.4 7.3-8.75 0-17.2-2.81-25.5-8.38l3.84-7.71c7.07 3.54 13.5 5.31 19.2 5.31 5.39 0 9.61-1.2 12.7-3.58 3.04-2.39 4.87-5.73 4.87-9.96 0-5.33-3.71-9.88-10.5-13.7-6.28-3.45-18.8-10.7-18.8-10.7-6.8-4.97-10.2-10.3-10.2-19.1 0-7.27 2.54-13.1 7.62-17.6 5.09-4.48 11.6-6.72 19.7-6.72 8.31 0 15.9 2.22 22.7 6.65l-3.46 7.7c-5.82-2.47-11.6-3.72-17.2-3.72-4.59 0-8.13 1.11-10.6 3.33-2.48 2.2-4.01 5.04-4.01 8.5 0 5.31 3.79 9.92 10.8 13.8 6.35 3.46 19.2 10.8 19.2 10.8 6.99 4.96 10.5 10.3 10.5 19" style="fill:#f29111"/>
 <path d="m358 83.1h2.37v-9.13h3.1v-1.86h-8.7v1.86h3.22zm18.1 0h2.24v-11h-3.36l-2.74 7.49-2.98-7.49h-3.24v11h2.12v-8.37h0.12l3.12 8.37h1.61l3.12-8.37v8.37" style="fill:#f29111"/>
</svg>
